<?xml version="1.0" encoding="UTF-8"?>
<svg version="1.1" xmlns="http://www.w3.org/2000/svg" width="512" height="512">
<path d="M0 0 C3.66910112 3.9600988 4.71957732 6.57849491 5 12 C4.7397104 14.34260643 4.42579972 16.6817571 4 19 C19.50782254 24.17955107 41.60451746 24.89282095 57 19 C59.76138079 17.18008855 62.14963958 15.21569114 64.6015625 13 C74.68632695 4.59055473 88.5637253 2.79930073 101.24414062 3.65380859 C109.75210872 4.72258063 118.0055704 7.59838748 126.16992188 10.12792969 C135.32181858 12.9480276 144.38080695 15.54733209 154 16 C153.773125 14.80375 153.54625 13.6075 153.3125 12.375 C152.79361825 8.05607251 153.44092011 5.63224243 156 2 C160.46439353 -1.39000286 164.86000987 -3.29282811 170.125 -5 C170.89908203 -5.25418701 171.67316406 -5.50837402 172.47070312 -5.77026367 C195.90072365 -13.17993743 224.85125832 -17.10194665 249 -11 C253.4177967 -8.59705883 255.7637634 -6.47903463 258 -2 C258.38031673 0.65717888 258.38031673 0.65717888 258.38768005 3.56539917 C258.402537 5.22653748 258.402537 5.22653748 258.41769409 6.92123413 C258.41319244 8.12655792 258.4086908 9.33188171 258.40405273 10.57373047 C258.41434761 12.48916656 258.41434761 12.48916656 258.42485046 14.44329834 C258.44277352 17.93930153 258.44161494 21.43505361 258.43590808 24.93108892 C258.43281431 27.85344434 258.43891091 30.77575165 258.44494683 33.69810021 C258.45898825 40.595161 258.4574346 47.49209793 258.44604492 54.38916016 C258.43456971 61.49484543 258.4486299 68.600153 258.4754414 75.70578849 C258.49762542 81.81468001 258.50422955 87.92345321 258.49836498 94.03238213 C258.49499993 97.67729811 258.49737981 101.32197213 258.51461601 104.9668541 C258.53300972 109.03397129 258.51887045 113.1003579 258.50170898 117.16748047 C258.51137695 118.3687558 258.52104492 119.57003113 258.53100586 120.80770874 C258.47291373 127.3827976 258.1252517 131.75109308 254 137 C251.13948706 139.07975107 248.7218768 139.25833351 245.23486328 139.29052734 C244.29353546 139.30328705 243.35220764 139.31604675 242.38235474 139.32919312 C241.3718808 139.33141876 240.36140686 139.33364441 239.3203125 139.3359375 C237.75203201 139.3459227 237.75203201 139.3459227 236.15206909 139.35610962 C233.94140379 139.36622977 231.73070798 139.37092684 229.52001953 139.37060547 C226.14434244 139.37497496 222.76997675 139.4112924 219.39453125 139.44921875 C217.24479613 139.4550878 215.09505481 139.4590566 212.9453125 139.4609375 C211.43567429 139.48249405 211.43567429 139.48249405 209.89553833 139.50448608 C203.95224413 139.46589449 200.51980491 138.97401021 196 135 C194.625 132.75 194.625 132.75 194 131 C189.64029169 132.34849837 185.68658562 134.04907846 181.625 136.125 C180.56539063 136.66382813 179.50578125 137.20265625 178.4140625 137.7578125 C177.61742187 138.16773438 176.82078125 138.57765625 176 139 C176.48339844 140.33804688 176.48339844 140.33804688 176.9765625 141.703125 C179.25836159 149.05365336 178.44414722 155.74917507 175.328125 162.73828125 C171.86972894 168.62772631 166.43257744 171.96865976 160 174 C157.27618362 174.21579531 154.73984233 174.14420223 152 174 C151.84144531 174.58007812 151.68289063 175.16015625 151.51953125 175.7578125 C149.23294301 183.41346153 146.31174335 187.94752489 139.3125 191.875 C134.14395966 194.30771147 129.62533656 194.53859605 124 194 C123.79375 195.010625 123.5875 196.02125 123.375 197.0625 C121.61442384 203.10225433 117.64578927 207.35714346 112.1875 210.375 C104.85099213 213.61703776 98.53820561 213.32999083 91 211 C90.79375 211.721875 90.5875 212.44375 90.375 213.1875 C88.14670609 217.74537391 84.73068192 220.19234844 80.1875 222.3125 C72.87725513 223.88921948 66.78546509 223.37355167 60 220 C57.39380902 218.03088326 55.16544196 215.77539911 52.90234375 213.42578125 C51.94540367 212.46178658 51.94540367 212.46178658 50.96913147 211.47831726 C48.94654028 209.43452733 46.94225009 207.37377636 44.9375 205.3125 C43.58900049 203.94747039 42.23939985 202.58352766 40.88867188 201.22070312 C31.04373366 191.24268753 31.04373366 191.24268753 26.59399414 186.09399414 C20.42554175 178.98048842 13.69169159 172.3885963 7.06054688 165.71044922 C5.36238951 163.99577659 3.66960667 162.27576338 1.98242188 160.55029297 C-9.81940191 148.4831819 -21.16304795 137.42968202 -37 131 C-37.226875 131.763125 -37.45375 132.52625 -37.6875 133.3125 C-39.39121014 136.80104934 -40.42968642 137.43404333 -44 139 C-47.604772 139.44173088 -51.18443163 139.42028504 -54.8125 139.3984375 C-56.38221558 139.40274277 -56.38221558 139.40274277 -57.98364258 139.40713501 C-60.19255109 139.40917328 -62.40147775 139.40366004 -64.61035156 139.39111328 C-67.98804146 139.37505685 -71.36453475 139.39097063 -74.7421875 139.41015625 C-76.89062764 139.40817378 -79.03906703 139.40433002 -81.1875 139.3984375 C-82.19594971 139.40451019 -83.20439941 139.41058289 -84.2434082 139.4168396 C-93.38418759 139.32531874 -93.38418759 139.32531874 -97 136 C-101.01276504 130.18509612 -100.4223824 124.06632216 -100.38818359 117.28100586 C-100.39344055 116.00068985 -100.39869751 114.72037384 -100.40411377 113.40126038 C-100.41775207 109.90130432 -100.41250368 106.40161452 -100.40297651 102.90165401 C-100.39536338 99.23379107 -100.40242996 95.56595041 -100.40713501 91.89808655 C-100.41258707 85.74052857 -100.40541471 79.58307867 -100.39111328 73.42553711 C-100.3747805 66.31132508 -100.38008192 59.19737091 -100.3965925 52.08316511 C-100.41021443 45.9683445 -100.41212381 39.85360143 -100.40427649 33.73877054 C-100.39960477 30.08951088 -100.39896141 26.44037236 -100.40888596 22.79112053 C-100.41917572 18.72379193 -100.40490678 14.65690679 -100.38818359 10.58959961 C-100.39425629 9.38270477 -100.40032898 8.17580994 -100.40658569 6.93234253 C-100.39812622 5.82347183 -100.38966675 4.71460114 -100.38095093 3.5721283 C-100.37981985 2.61111678 -100.37868877 1.65010527 -100.37752342 0.65997219 C-99.73227306 -3.88636303 -97.75416353 -6.38897799 -94.2421875 -9.234375 C-71.44477763 -21.64935001 -21.59992993 -12.93839397 0 0 Z " fill="#020201" transform="translate(177,171)"/>
<path d="M0 0 C11.50160247 1.8712205 11.50160247 1.8712205 16.625 3.0625 C24.27928662 4.66133948 32.2094349 4.67751473 40 5 C38.9124534 8.26263979 38.43668107 8.62188044 35.8125 10.5625 C30.49250485 14.9391558 26.33547496 21.18133681 25 28 C24.89367245 30.05604079 24.84145149 32.11512253 24.82299805 34.17382812 C24.81016281 35.42192261 24.79732758 36.67001709 24.78410339 37.95593262 C24.77593788 39.3143677 24.76849378 40.67280728 24.76171875 42.03125 C24.75764322 42.71764053 24.7535677 43.40403107 24.74936867 44.11122131 C24.72855581 47.74032282 24.71423027 51.36938699 24.70483398 54.99853516 C24.69374438 58.74468415 24.65930261 62.49024327 24.61966228 66.23618317 C24.59352769 69.12039294 24.58514532 72.00446092 24.58155251 74.88877869 C24.57668285 76.26989248 24.56505785 77.65099979 24.54651451 79.03199768 C24.52218226 80.96324362 24.52550206 82.89477797 24.5300293 84.82617188 C24.52416306 85.92441284 24.51829681 87.02265381 24.51225281 88.1541748 C25.11537563 91.67317432 26.20892461 92.84193244 29 95 C40.42724424 97.37267972 52.78195021 92.3579666 62.5 86.6796875 C70.60106869 81.23678197 75.79250244 74.23500977 79 65 C79.6070126 61.17660892 79.99458232 57.36735403 80.375 53.515625 C81.26550441 48.50653771 83.40330991 44.60646371 87 41 C87.66 41 88.32 41 89 41 C89 40.34 89 39.68 89 39 C92.96990614 40.59594879 95.60892923 43.36023597 98.54370117 46.36425781 C99.08578217 46.91086563 99.62786316 47.45747345 100.18637085 48.02064514 C101.361115 49.20633222 102.53357483 50.39428594 103.70400047 51.58423615 C105.56256608 53.47304119 107.42779485 55.35502632 109.29499817 57.23529053 C114.60216444 62.58212933 119.89667223 67.94143827 125.18774414 73.30419922 C128.4278863 76.58730196 131.67550222 79.86286625 134.92748451 83.1342392 C136.15948014 84.37673647 137.3885572 85.62213526 138.61452293 86.87058258 C147.26311353 95.71142219 147.26311353 95.71142219 157.26019287 102.94332886 C161.4700715 105.50019691 165.28550345 109.3084034 166.5703125 114.1484375 C166.7549278 117.4592052 166.2197602 119.65717409 164.4375 122.4375 C161.00745574 124.63624632 159.10924297 125.20546215 155 125 C151.8599083 123.19228666 149.52026632 120.57531113 147 118 C145.80255349 116.82241391 144.60316567 115.64680014 143.40234375 114.47265625 C137.56024576 108.72947824 131.78582858 102.97060378 126.48828125 96.71484375 C120.71086391 89.63193544 120.71086391 89.63193544 112.5625 86.75 C109.14911398 86.74717687 109.14911398 86.74717687 107 88.0625 C105.33808842 91.28245368 106.15220406 93.54496551 107 97 C108.68737566 99.56598496 110.76629813 101.65080531 112.9375 103.8125 C113.54561523 104.44124023 114.15373047 105.06998047 114.78027344 105.71777344 C116.83541369 107.83054406 118.91446381 109.91723897 121 112 C121.78971191 112.79132324 122.57942383 113.58264648 123.39306641 114.39794922 C128.24968708 119.26064342 128.24968708 119.26064342 133.13256836 124.09692383 C133.86741455 124.82290771 134.60226074 125.5488916 135.359375 126.296875 C136.01389648 126.93979492 136.66841797 127.58271484 137.34277344 128.24511719 C139 130 139 130 141 133 C140.86300711 136.76730436 140.48289599 139.24668225 138.4375 142.4375 C135.65464908 144.22137879 133.45360007 144.75213778 130.140625 144.57421875 C125.81008941 143.41256048 123.04791638 140.13109538 120 137 C119.32839844 136.35160156 118.65679687 135.70320312 117.96484375 135.03515625 C114.80097702 131.95663467 111.79319503 128.80314058 108.9375 125.4375 C105.22188646 121.11419266 101.21052665 117.09691123 97.1875 113.0625 C96.5164624 112.38695068 95.8454248 111.71140137 95.15405273 111.01538086 C94.51927002 110.38253174 93.8844873 109.74968262 93.23046875 109.09765625 C92.37038208 108.23926147 92.37038208 108.23926147 91.49291992 107.36352539 C89.2716559 105.33478302 88.10890674 105.00926866 85.0625 104.75 C82.08755559 104.77674522 82.08755559 104.77674522 80.125 106.0625 C78.32008713 109.17096105 78.60610864 111.46602146 79 115 C80.81961222 117.31559847 82.39650461 119.01977823 84.5625 120.9375 C85.68281067 121.98894843 86.80131147 123.04232867 87.91796875 124.09765625 C88.72693604 124.85006592 88.72693604 124.85006592 89.55224609 125.61767578 C91.28686781 127.27390313 92.84132544 129.03221274 94.375 130.875 C98.3902065 135.61294367 102.85986903 139.90859448 107.29052734 144.25341797 C107.8830127 144.83752441 108.47549805 145.42163086 109.0859375 146.0234375 C109.6226709 146.54856934 110.1594043 147.07370117 110.71240234 147.61474609 C112.81840516 149.88047609 113.01836842 151.16225441 113.375 154.3125 C113 158 113 158 110.9375 160.9375 C108 163 108 163 104.75 163.8125 C97.80177237 162.30705068 93.52380352 156.79292783 89.03515625 151.55859375 C84.14886498 145.93469956 78.93201787 140.63623979 73.69311523 135.34301758 C72.515545 134.14874422 71.34338632 132.94911243 70.17651367 131.74438477 C68.47213958 129.98528415 66.75192128 128.2431771 65.02734375 126.50390625 C64.51155258 125.96544571 63.99576141 125.42698517 63.46434021 124.87220764 C60.12775404 121.55473611 57.72993028 120.16623291 53 120 C50.48130668 120.76391002 50.48130668 120.76391002 49 123 C48.42092918 126.24350711 48.19436014 127.89267514 49 131 C51.45203673 134.428535 54.45865046 137.16468304 57.5625 140 C59.17028141 141.51838825 60.77577736 143.03920039 62.37890625 144.5625 C63.16217285 145.29992432 63.94543945 146.03734863 64.75244141 146.79711914 C67.50145153 149.49148351 69.9940753 152.35210589 72.48803711 155.28076172 C74.3428081 157.38980375 76.38816694 159.21464608 78.5 161.0625 C81.98301025 164.46482275 81.98301025 164.46482275 82.125 168.9375 C81 172 81 172 79 173 C75.1903011 173.46986618 73.55266588 173.4039093 70.41040039 171.10742188 C69.14184204 169.8012793 69.14184204 169.8012793 67.84765625 168.46875 C67.38443466 167.9994104 66.92121307 167.5300708 66.44395447 167.04650879 C64.96882506 165.54453626 63.51604929 164.0228349 62.0625 162.5 C61.09054067 161.50649198 60.11724393 160.51429051 59.14257812 159.5234375 C55.20892759 155.49914185 51.35624985 151.42861992 47.67993164 147.16674805 C43.91144727 142.83697832 39.90812175 138.78101937 35.8359375 134.73828125 C35.08083893 133.98459763 34.32574036 133.230914 33.54776001 132.45439148 C31.15920239 130.07137744 28.76717929 127.69187785 26.375 125.3125 C24.76278784 123.70531182 23.15080662 122.09789193 21.5390625 120.49023438 C17.94439411 116.90545103 14.34714972 113.32326975 10.74884033 109.74214172 C9.21231725 108.21150401 7.67790828 106.67880702 6.14501953 105.14453125 C-3.71040248 95.29135267 -14.38256921 87.93761449 -27 82 C-26.44043674 77.38233607 -25.56117812 73.21993183 -24.03808594 68.82788086 C-23.63386414 67.65233139 -23.22964233 66.47678192 -22.81317139 65.26560974 C-22.37038967 63.99863517 -21.92745352 62.73171456 -21.484375 61.46484375 C-21.02642546 60.14093597 -20.56901762 58.8168407 -20.11212158 57.49256897 C-18.90970193 54.01244301 -17.69961643 50.53503 -16.48797607 47.05810547 C-15.2722041 43.56453328 -14.06433592 40.06823156 -12.85546875 36.57226562 C-8.62843093 24.36045321 -4.36407121 12.16354405 0 0 Z " fill="#FBC9A8" transform="translate(173,205)"/>
<path d="M0 0 C13.29340439 4.28011602 26.05469028 6.16155347 40 7 C43.68378219 17.39140633 47.35256545 27.78805435 51.01098633 38.18841553 C51.6909644 40.12146848 52.37115184 42.0544478 53.05151367 43.98736572 C55.26060065 50.26475948 57.46393052 56.54413214 59.66064453 62.8258667 C60.3871965 64.90118864 61.11538848 66.97593716 61.84521484 69.05010986 C62.87519736 71.97849268 63.89924331 74.90888722 64.921875 77.83984375 C65.23380798 78.72275589 65.54574097 79.60566803 65.86712646 80.51533508 C66.14912903 81.32745956 66.43113159 82.13958405 66.72167969 82.97631836 C66.96972351 83.68429062 67.21776733 84.39226288 67.47332764 85.12168884 C68 87 68 87 68 90 C65.23012967 91.31456549 62.45916513 92.6267287 59.6875 93.9375 C58.90181641 94.31068359 58.11613281 94.68386719 57.30664062 95.06835938 C56.54931641 95.42607422 55.79199219 95.78378906 55.01171875 96.15234375 C54.31522217 96.48226318 53.61872559 96.81218262 52.90112305 97.15209961 C48.17544921 99.25974893 44.0920849 99.74188052 39 99 C31.27227411 95.1329033 25.03454541 87.20255513 19.07116508 81.09923363 C17.08802554 79.07165961 15.09671615 77.05244946 13.10279846 75.03547668 C7.43945946 69.30528893 1.78484008 63.56670726 -3.84936523 57.80786133 C-7.30809786 54.27379804 -10.78133005 50.75455466 -14.26426506 47.24434853 C-15.58431249 45.90821977 -16.89878944 44.56656317 -18.2074604 43.21928978 C-20.03558095 41.33814801 -21.88157708 39.47642549 -23.73266602 37.61791992 C-24.26532578 37.06054642 -24.79798553 36.50317291 -25.3467865 35.9289093 C-29.03961568 32.27477362 -31.80155937 31.04512681 -37 31 C-39.57446003 32.50789802 -41.35069405 33.77601508 -43.5 35.75 C-44.06170898 36.245 -44.62341797 36.74 -45.20214844 37.25 C-52.29655035 43.7494405 -57.82441981 51.33550597 -58.3125 61.125 C-58.9333253 68.355227 -61.32667355 75.09076832 -66.25390625 80.5859375 C-72.01797456 85.25393018 -78.74827907 87.90320162 -86 89 C-86.12722431 82.02591525 -86.21452903 75.05213195 -86.2746582 68.07714844 C-86.29973575 65.70659196 -86.33380632 63.3361123 -86.37719727 60.96582031 C-86.43814397 57.54993695 -86.4662785 54.13507964 -86.48828125 50.71875 C-86.51408768 49.66635132 -86.5398941 48.61395264 -86.56648254 47.52966309 C-86.56949391 39.55235963 -84.56157081 34.69664036 -79.04296875 28.96875 C-78.12451172 28.24171875 -78.12451172 28.24171875 -77.1875 27.5 C-74.30288479 25.11870414 -71.61723719 22.67379831 -69 20 C-65.83085539 16.78769583 -62.55552373 13.78109429 -59.12109375 10.85546875 C-57.5980764 9.52317917 -56.11507415 8.14462092 -54.66015625 6.73828125 C-37.30735974 -9.846935 -21.01743619 -6.79856356 0 0 Z " fill="#FCDDC3" transform="translate(298,196)"/>
<path d="M0 0 C-1.97744552 7.62030491 -4.29158372 15.05737704 -6.88671875 22.48828125 C-7.26131226 23.57021759 -7.63590576 24.65215393 -8.02185059 25.76687622 C-9.24028588 29.283291 -10.46382531 32.79790543 -11.6875 36.3125 C-12.53391434 38.75192894 -13.38002091 41.19146468 -14.22583008 43.63110352 C-16.38799629 49.86460313 -18.55456025 56.09656362 -20.72265625 62.32800293 C-22.3658649 67.05175668 -24.00712115 71.7761876 -25.64836121 76.50062561 C-29.75995238 88.33571145 -33.87803012 100.16852508 -38 112 C-49.55 112 -61.1 112 -73 112 C-73 72.4 -73 32.8 -73 -8 C-48.36751949 -11.51892579 -23.08707361 -9.46764027 0 0 Z " fill="#0E7FEF" transform="translate(165,183)"/>
<path d="M0 0 C3.84620171 3.39769743 5.54268088 8.03833819 7.453125 12.71484375 C7.75820984 13.4482045 8.06329468 14.18156525 8.37762451 14.93714905 C9.01697038 16.4810443 9.65209456 18.02669388 10.28320312 19.57397461 C11.2478612 21.93227128 12.23237129 24.28157841 13.21875 26.63085938 C13.83975957 28.13751942 14.45959141 29.64466554 15.078125 31.15234375 C15.51865204 32.19792702 15.51865204 32.19792702 15.96807861 33.26463318 C17.60020402 37.3184823 18.51244513 40.63112759 18 45 C15.54405875 48.32274404 14.0743356 49.77618008 10 50.625 C5.94645819 49.78051212 4.69259752 48.11840364 2 45 C0.75453406 42.54418972 -0.31880277 40.23335755 -1.3125 37.6875 C-1.57611328 37.04232422 -1.83972656 36.39714844 -2.11132812 35.73242188 C-2.75215181 34.15949102 -3.37769715 32.58034985 -4 31 C-10.1370216 47.76582072 -14.25663006 65.22168092 -16 83 C-16.16628906 84.68029297 -16.16628906 84.68029297 -16.3359375 86.39453125 C-21.28933537 144.96511412 -2.9579281 204.97215039 35 250 C35.4552002 250.54398438 35.91040039 251.08796875 36.37939453 251.6484375 C45.51134099 262.54373279 54.86510616 272.10410641 66 281 C68.04477136 282.64197449 70.08654044 284.28769615 72.125 285.9375 C73.49011719 287.03384766 73.49011719 287.03384766 74.8828125 288.15234375 C77.75922203 290.6625683 77.95528783 291.51710861 78.3125 295.375 C78 299 78 299 76.5 301.4375 C73.73989276 303.16256702 71.59434007 303.87854428 68.31640625 303.69140625 C63.57193177 302.27526463 60.15875087 298.67118442 56.56103516 295.39892578 C54.93861359 293.94498841 53.28048367 292.54527082 51.60546875 291.15234375 C39.89900835 281.39073699 29.38966824 271.03675556 20 259 C19.21109375 258.01644531 18.4221875 257.03289062 17.609375 256.01953125 C-22.71804149 205.32289187 -39.45980034 140.2122986 -32.40673828 76.20898438 C-30.44040796 60.69551157 -26.94438109 45.6191224 -22.13671875 30.75390625 C-20.85509305 27.17516463 -20.85509305 27.17516463 -21 24 C-22.00160156 24.44472656 -23.00320312 24.88945312 -24.03515625 25.34765625 C-25.37722983 25.92014918 -26.71969925 26.49171476 -28.0625 27.0625 C-28.71927734 27.35705078 -29.37605469 27.65160156 -30.05273438 27.95507812 C-34.74380455 29.91931933 -37.91264128 30.22096609 -43 29 C-44.9375 27.9375 -44.9375 27.9375 -46 26 C-46.61057692 20.50480769 -46.61057692 20.50480769 -46 18 C-42.8267279 14.11029478 -38.99429756 12.40499077 -34.453125 10.546875 C-33.72309265 10.24179016 -32.9930603 9.93670532 -32.24090576 9.62237549 C-30.69981469 8.98210093 -29.15656294 8.34700524 -27.61132812 7.71679688 C-25.26437859 6.75588702 -22.92918075 5.76977128 -20.59375 4.78125 C-19.08918643 4.15989478 -17.58399669 3.5400532 -16.078125 2.921875 C-15.04332001 2.48134796 -15.04332001 2.48134796 -13.98760986 2.03192139 C-9.12330453 0.08252808 -5.24330483 -0.69318267 0 0 Z " fill="#000000" transform="translate(47,150)"/>
<path d="M0 0 C5.07442652 1.51475418 9.06785796 5.32366647 13.09375 8.625 C13.6398291 9.06956543 14.1859082 9.51413086 14.74853516 9.97216797 C27.45044378 20.372559 39.00747088 31.64913822 49.09375 44.625 C49.88136719 45.60726562 50.66898437 46.58953125 51.48046875 47.6015625 C91.81793704 98.29648707 108.55597965 163.42419431 101.49609375 227.42919922 C99.24178515 245.33508488 94.76416372 262.52281592 89.09375 279.625 C90.16753906 279.18027344 91.24132812 278.73554688 92.34765625 278.27734375 C93.78351481 277.70487726 95.21973218 277.13331016 96.65625 276.5625 C97.36072266 276.26794922 98.06519531 275.97339844 98.79101562 275.66992188 C103.6152582 273.7802416 106.91091501 273.36855515 112.09375 274.625 C114.03125 275.6875 114.03125 275.6875 115.09375 277.625 C115.70432692 283.12019231 115.70432692 283.12019231 115.09375 285.625 C111.9204779 289.51470522 108.08804756 291.22000923 103.546875 293.078125 C102.81684265 293.38320984 102.0868103 293.68829468 101.33465576 294.00262451 C99.79356469 294.64289907 98.25031294 295.27799476 96.70507812 295.90820312 C94.35812859 296.86911298 92.02293075 297.85522872 89.6875 298.84375 C88.18293643 299.46510522 86.67774669 300.0849468 85.171875 300.703125 C84.482005 300.99680969 83.79213501 301.29049438 83.08135986 301.59307861 C78.21705453 303.54247192 74.33705483 304.31818267 69.09375 303.625 C65.24754829 300.22730257 63.55106912 295.58666181 61.640625 290.91015625 C61.33554016 290.1767955 61.03045532 289.44343475 60.71612549 288.68785095 C60.07677962 287.1439557 59.44165544 285.59830612 58.81054688 284.05102539 C57.8458888 281.69272872 56.86137871 279.34342159 55.875 276.99414062 C55.25399043 275.48748058 54.63415859 273.98033446 54.015625 272.47265625 C53.57509796 271.42707298 53.57509796 271.42707298 53.12567139 270.36036682 C51.49354598 266.3065177 50.58130487 262.99387241 51.09375 258.625 C53.54969125 255.30225596 55.0194144 253.84881992 59.09375 253 C63.14729181 253.84448788 64.40115248 255.50659636 67.09375 258.625 C68.33921594 261.08081028 69.41255277 263.39164245 70.40625 265.9375 C70.66986328 266.58267578 70.93347656 267.22785156 71.20507812 267.89257812 C71.84590181 269.46550898 72.47144715 271.04465015 73.09375 272.625 C79.23051485 255.85988072 83.35240065 238.40296197 85.09375 220.625 C85.20460938 219.49320313 85.31546875 218.36140625 85.4296875 217.1953125 C89.98261326 162.92935955 74.64487663 107.38167633 42.09375 63.625 C41.66126953 63.03702637 41.22878906 62.44905273 40.78320312 61.84326172 C28.21944814 44.88219249 13.41700384 30.04163048 -3.34985352 17.25268555 C-7.8024994 13.8325012 -7.8024994 13.8325012 -8.90625 11.625 C-9.26144903 7.78885043 -9.45349594 5.47870366 -7.34375 2.1875 C-4.82781506 0.57472119 -3.01885903 -0.20466841 0 0 Z " fill="#000000" transform="translate(395.90625,58.375)"/>
<path d="M0 0 C3.88970522 3.1732721 5.59500923 7.00570244 7.453125 11.546875 C7.91075226 12.64192352 7.91075226 12.64192352 8.37762451 13.75909424 C9.01789907 15.30018531 9.65299476 16.84343706 10.28320312 18.38867188 C11.24411298 20.73562141 12.23022872 23.07081925 13.21875 25.40625 C13.84010522 26.91081357 14.4599468 28.41600331 15.078125 29.921875 C15.37180969 30.611745 15.66549438 31.30161499 15.96807861 32.01239014 C17.91747192 36.87669547 18.69318267 40.75669517 18 46 C14.60230257 49.84620171 9.96166181 51.54268088 5.28515625 53.453125 C4.5517955 53.75820984 3.81843475 54.06329468 3.06285095 54.37762451 C1.5189557 55.01697038 -0.02669388 55.65209456 -1.57397461 56.28320312 C-3.93227128 57.2478612 -6.28157841 58.23237129 -8.63085938 59.21875 C-10.13751942 59.83975957 -11.64466554 60.45959141 -13.15234375 61.078125 C-14.19792702 61.51865204 -14.19792702 61.51865204 -15.26463318 61.96807861 C-19.3184823 63.60020402 -22.63112759 64.51244513 -27 64 C-30.32274404 61.54405875 -31.77618008 60.0743356 -32.625 56 C-31.98873467 52.94592641 -31.2375034 51.31654927 -28.8984375 49.234375 C-24.0177981 46.06095514 -17.87150614 43 -12 43 C-12 42.34 -12 41.68 -12 41 C-13.25167969 40.73058594 -14.50335938 40.46117187 -15.79296875 40.18359375 C-19.35810597 39.39234623 -22.89358121 38.5246788 -26.42578125 37.59765625 C-88.36256436 21.37799067 -150.51073414 29.71900198 -206 62 C-211.52548006 65.40269676 -216.7956409 69.12841362 -222 73 C-222.58797363 73.43248047 -223.17594727 73.86496094 -223.78173828 74.31054688 C-241.42026868 87.37612495 -256.41036622 102.86952943 -269.8125 120.19140625 C-272 123 -272 123 -273 124 C-280.07246377 124.57971014 -280.07246377 124.57971014 -283.5 122.4375 C-285.04712761 119.92341764 -285.82719605 118.07614178 -285.625 115.09375 C-284.11024582 110.01932348 -280.30133353 106.02589204 -277 102 C-276.55543457 101.4539209 -276.11086914 100.9078418 -275.65283203 100.34521484 C-265.252441 87.64330622 -253.97586178 76.08627912 -241 66 C-240.01773438 65.21238281 -239.03546875 64.42476563 -238.0234375 63.61328125 C-187.23778662 23.2036229 -122.38431109 6.84149475 -58.32324219 13.59326172 C-42.7660844 15.49733348 -27.65018198 19.04506179 -12.75390625 23.86328125 C-9.17516463 25.14490695 -9.17516463 25.14490695 -6 25 C-6.44472656 23.99839844 -6.88945312 22.99679688 -7.34765625 21.96484375 C-7.92014918 20.62277017 -8.49171476 19.28030075 -9.0625 17.9375 C-9.50432617 16.95233398 -9.50432617 16.95233398 -9.95507812 15.94726562 C-11.91931933 11.25619545 -12.22096609 8.08735872 -11 3 C-8.7860583 -1.03718781 -4.11975154 -1.00423886 0 0 Z " fill="#000000" transform="translate(344,1)"/>
<path d="M0 0 C3.19072552 2.04533687 3.85117893 3.39231398 4.75 7.0625 C4.21719801 15.66082169 -5.33823246 23.69270316 -10.84375 29.66015625 C-12.79685976 31.7795634 -14.68638369 33.93761894 -16.5625 36.125 C-22.58129999 42.99772585 -29.03435618 49.01381445 -36.16796875 54.72265625 C-37.98399224 56.18298962 -39.7804938 57.66814094 -41.55078125 59.18359375 C-54.10225723 69.86853764 -68.45907215 78.31500789 -83 86 C-83.61649414 86.33064453 -84.23298828 86.66128906 -84.86816406 87.00195312 C-106.16671168 98.26119585 -130.33499414 105.05124078 -154 109 C-155.10649902 109.1846582 -155.10649902 109.1846582 -156.23535156 109.37304688 C-196.35723302 115.82154708 -236.66551128 110.71021349 -275 98 C-274.55527344 99.07378906 -274.11054688 100.14757812 -273.65234375 101.25390625 C-273.07987726 102.68976481 -272.50831016 104.12598218 -271.9375 105.5625 C-271.64294922 106.26697266 -271.34839844 106.97144531 -271.04492188 107.69726562 C-269.1552416 112.5215082 -268.74355515 115.81716501 -270 121 C-271.0625 122.9375 -271.0625 122.9375 -273 124 C-278.49519231 124.61057692 -278.49519231 124.61057692 -281 124 C-284.88970522 120.8267279 -286.59500923 116.99429756 -288.453125 112.453125 C-288.75820984 111.72309265 -289.06329468 110.9930603 -289.37762451 110.24090576 C-290.01789907 108.69981469 -290.65299476 107.15656294 -291.28320312 105.61132812 C-292.24411298 103.26437859 -293.23022872 100.92918075 -294.21875 98.59375 C-294.84010522 97.08918643 -295.4599468 95.58399669 -296.078125 94.078125 C-296.37180969 93.388255 -296.66549438 92.69838501 -296.96807861 91.98760986 C-298.91747192 87.12330453 -299.69318267 83.24330483 -299 78 C-295.60230257 74.15379829 -290.96166181 72.45731912 -286.28515625 70.546875 C-285.5517955 70.24179016 -284.81843475 69.93670532 -284.06285095 69.62237549 C-282.5189557 68.98302962 -280.97330612 68.34790544 -279.42602539 67.71679688 C-277.06772872 66.7521388 -274.71842159 65.76762871 -272.36914062 64.78125 C-270.86248058 64.16024043 -269.35533446 63.54040859 -267.84765625 62.921875 C-266.80207298 62.48134796 -266.80207298 62.48134796 -265.73536682 62.03192139 C-261.6815177 60.39979598 -258.36887241 59.48755487 -254 60 C-250.67725596 62.45594125 -249.22381992 63.9256644 -248.375 68 C-249.21948788 72.05354181 -250.88159636 73.30740248 -254 76 C-256.45581028 77.24546594 -258.76664245 78.31880277 -261.3125 79.3125 C-262.28026367 79.70791992 -262.28026367 79.70791992 -263.26757812 80.11132812 C-264.84050898 80.75215181 -266.41965015 81.37769715 -268 82 C-251.22176874 88.1415644 -233.78480152 92.21944944 -216 94 C-214.96488281 94.11085938 -213.92976563 94.22171875 -212.86328125 94.3359375 C-158.7204395 99.36300185 -102.58570343 83.42393779 -59 51 C-58.41202637 50.56751953 -57.82405273 50.13503906 -57.21826172 49.68945312 C-40.25719249 37.12569814 -25.41663048 22.32325384 -12.62768555 5.55639648 C-8.60151455 0.3148329 -6.7004831 -0.57762785 0 0 Z " fill="#000000" transform="translate(449,387)"/>
<path d="M0 0 C0.73668915 -0.00095673 1.4733783 -0.00191345 2.23239136 -0.00289917 C3.78041673 -0.00357618 5.32844501 -0.00175552 6.87646484 0.00244141 C9.24192673 0.00781191 11.60720009 0.00247229 13.97265625 -0.00390625 C15.48177125 -0.00324568 16.99088613 -0.00196497 18.5 0 C19.55636154 -0.00303635 19.55636154 -0.00303635 20.63406372 -0.00613403 C24.04398002 0.01012617 26.77518116 0.29731092 30.1171875 1.1328125 C30.1171875 40.4028125 30.1171875 79.6728125 30.1171875 120.1328125 C18.8971875 120.1328125 7.6771875 120.1328125 -3.8828125 120.1328125 C-12.07798264 97.03733303 -20.13292775 73.89702043 -28.1184082 50.72827148 C-28.50908981 49.5950798 -28.89977142 48.46188812 -29.30229187 47.2943573 C-30.0693823 45.06908122 -30.83608375 42.843671 -31.60237122 40.61811829 C-33.38847385 35.43669239 -35.18597966 30.25986218 -37.01318359 25.09277344 C-37.34243332 24.16040863 -37.67168304 23.22804382 -38.01091003 22.26742554 C-38.62504905 20.53190959 -39.24184789 18.79733172 -39.86177063 17.06387329 C-41.8828125 11.35280895 -41.8828125 11.35280895 -41.8828125 9.1328125 C-36.16371421 6.44239763 -30.47118598 4.9102636 -24.3203125 3.5078125 C-23.40056641 3.29125 -22.48082031 3.0746875 -21.53320312 2.8515625 C-14.29169315 1.16482689 -7.46369746 -0.02157727 0 0 Z " fill="#FED44E" transform="translate(388.8828125,173.8671875)"/>
<path d="M0 0 C0.96357422 -0.00515625 1.92714844 -0.0103125 2.91992188 -0.015625 C10.84521245 0.05909154 17.85973673 1.16746239 25.875 2.3125 C25.875 23.7625 25.875 45.2125 25.875 67.3125 C14.655 67.3125 3.435 67.3125 -8.125 67.3125 C-14.0961 50.4287 -14.0961 50.4287 -16.8515625 42.59375 C-18.64927762 37.48337113 -20.45603068 32.37661279 -22.28886414 27.27871704 C-23.34570665 24.3342427 -24.39021904 21.3853862 -25.4375 18.4375 C-26.02325806 16.8280249 -26.02325806 16.8280249 -26.62084961 15.18603516 C-26.96897705 14.19909668 -27.31710449 13.2121582 -27.67578125 12.1953125 C-27.98169189 11.34340332 -28.28760254 10.49149414 -28.6027832 9.61376953 C-29.17120508 7.10888661 -28.96139572 5.71277247 -28.125 3.3125 C-18.70350582 0.98483673 -9.70033071 0.01222474 0 0 Z " fill="#FEC228" transform="translate(393.125,226.6875)"/>
<path d="M0 0 C1.39777974 0.01009227 2.79556688 0.01920664 4.19335938 0.02734375 C7.524943 0.05039969 10.85611227 0.08291659 14.1875 0.125 C12.31471817 7.34474009 10.15597672 14.3763167 7.61328125 21.38671875 C7.28458542 22.30338821 6.95588959 23.22005768 6.61723328 24.164505 C5.58206665 27.04859387 4.54114796 29.93056572 3.5 32.8125 C2.79063148 34.78566923 2.08164378 36.75897541 1.37304688 38.73242188 C-0.35037843 43.53180859 -2.08159319 48.32828038 -3.8125 53.125 C-15.0325 53.125 -26.2525 53.125 -37.8125 53.125 C-37.8125 36.295 -37.8125 19.465 -37.8125 2.125 C-24.94614337 0.8996327 -12.80457038 -0.16472975 0 0 Z " fill="#42A1FE" transform="translate(130.8125,240.875)"/>
<path d="M0 0 C1.74919446 2.62379169 2.67323693 4.58650571 3.69580078 7.515625 C4.17607224 8.88219238 4.17607224 8.88219238 4.66604614 10.27636719 C5.00570404 11.25766602 5.34536194 12.23896484 5.6953125 13.25 C6.04761932 14.2596582 6.39992615 15.26931641 6.76290894 16.30957031 C7.50632542 18.44392631 8.2475734 20.57903866 8.98681641 22.71484375 C10.12130243 25.98932766 11.26525829 29.26039413 12.41015625 32.53125 C13.13078192 34.60396733 13.85085285 36.67687764 14.5703125 38.75 C14.91401886 39.73129883 15.25772522 40.71259766 15.61184692 41.72363281 C15.92572357 42.63467773 16.23960022 43.54572266 16.56298828 44.484375 C16.84119415 45.28584961 17.11940002 46.08732422 17.40603638 46.91308594 C18 49 18 49 18 52 C15.23012967 53.31456549 12.45916513 54.6267287 9.6875 55.9375 C8.50897461 56.49727539 8.50897461 56.49727539 7.30664062 57.06835938 C6.54931641 57.42607422 5.79199219 57.78378906 5.01171875 58.15234375 C4.31522217 58.48226318 3.61872559 58.81218262 2.90112305 59.15209961 C-1.82094621 61.25814128 -5.91135085 61.74850711 -11 61 C-19.11073378 56.84747503 -25.67595312 48.54445664 -32 42.125 C-33.16749879 40.94745054 -34.33546393 39.77036324 -35.50390625 38.59375 C-38.34134272 35.73446733 -41.17239294 32.8690022 -44 30 C-35.4461323 21.35962948 -26.1732158 14.35713947 -15.5625 8.4375 C-14.81782471 8.02024658 -14.07314941 7.60299316 -13.3059082 7.1730957 C-8.93912067 4.81218029 -4.82440767 3.17590964 0 2 C0 1.34 0 0.68 0 0 Z " fill="#FBC9A8" transform="translate(348,234)"/>
<path d="M0 0 C1.9039397 0.30939492 3.8075155 0.62102971 5.7109375 0.93359375 C6.77103027 1.10689209 7.83112305 1.28019043 8.92333984 1.45874023 C11.51869941 1.91532745 14.06353262 2.4485946 16.625 3.0625 C24.27928662 4.66133948 32.2094349 4.67751473 40 5 C38.9124534 8.26263979 38.43668107 8.62188044 35.8125 10.5625 C30.30714182 15.09165034 26.71993125 21.12027499 25 28 C24.67 32.95 24.34 37.9 24 43 C12.12 41.02 0.24 39.04 -12 37 C-8.625 24.625 -8.625 24.625 -6.73828125 19.23828125 C-6.34189453 18.10068359 -5.94550781 16.96308594 -5.53710938 15.79101562 C-5.13298828 14.64310547 -4.72886719 13.49519531 -4.3125 12.3125 C-3.68891602 10.52682617 -3.68891602 10.52682617 -3.05273438 8.70507812 C-2.03847718 5.80220407 -1.02084668 2.90056187 0 0 Z " fill="#FCB78B" transform="translate(173,205)"/>
<path d="M0 0 C3.96990614 1.59594879 6.60892923 4.36023597 9.54370117 7.36425781 C10.08578217 7.91086563 10.62786316 8.45747345 11.18637085 9.02064514 C12.361115 10.20633222 13.53357483 11.39428594 14.70400047 12.58423615 C16.56256608 14.47304119 18.42779485 16.35502632 20.29499817 18.23529053 C25.60216444 23.58212933 30.89667223 28.94143827 36.18774414 34.30419922 C39.4278863 37.58730196 42.67550222 40.86286625 45.92748451 44.1342392 C47.15948014 45.37673647 48.3885572 46.62213526 49.61452293 47.87058258 C58.25497929 56.70942021 58.25497929 56.70942021 68.26019287 63.91586304 C70.63160278 65.39357461 72.31187244 67.2146511 74.0625 69.375 C74.63097656 70.06335938 75.19945312 70.75171875 75.78515625 71.4609375 C76.18605469 71.96882813 76.58695312 72.47671875 77 73 C73.59437612 73 73.2356718 72.66044929 70.76953125 70.54296875 C70.13958252 70.01276123 69.50963379 69.48255371 68.8605957 68.9362793 C68.18472412 68.35918213 67.50885254 67.78208496 66.8125 67.1875 C45.89955556 49.77237376 22.10395044 35.85964507 -2.62109375 24.59375 C-6 23 -6 23 -9 21 C-8.96794278 13.32229618 -7.24806304 7.76312493 -2 2 C-1.34 2 -0.68 2 0 2 C0 1.34 0 0.68 0 0 Z " fill="#FBB68B" transform="translate(262,244)"/>
<path d="M0 0 C0.66 0 1.32 0 2 0 C2.391875 1.03640625 2.78375 2.0728125 3.1875 3.140625 C4.85405399 7.00470484 7.08585208 9.68683315 10 12.75 C10.50257324 13.28222168 11.00514648 13.81444336 11.52294922 14.36279297 C17.44542774 20.57851535 23.56225103 26.61271876 29.67578125 32.63964844 C30.46597656 33.42114258 31.25617188 34.20263672 32.0703125 35.0078125 C32.77945801 35.70535645 33.48860352 36.40290039 34.21923828 37.12158203 C36 39 36 39 38 42 C37.54716981 48.45283019 37.54716981 48.45283019 35 51 C34.59265625 49.77152344 34.1853125 48.54304688 33.765625 47.27734375 C30.53495548 40.01969294 24.40378467 34.95179432 18.75 29.5625 C0.66552929 12.16189583 0.66552929 12.16189583 -2 7 C-1.5957116 1.5957116 -1.5957116 1.5957116 0 0 Z " fill="#F8B489" transform="translate(276,296)"/>
<path d="M0 0 C0.99 0 1.98 0 3 0 C3.22300781 0.87914062 3.44601563 1.75828125 3.67578125 2.6640625 C5.23451346 6.59078023 7.12186461 8.4911885 10.1875 11.375 C13.36175465 14.41825204 16.4833989 17.43934099 19.3125 20.8125 C23.35305781 25.56784936 27.83834177 29.88749054 32.2902832 34.25317383 C32.88284912 34.83736084 33.47541504 35.42154785 34.0859375 36.0234375 C34.6226709 36.54856934 35.1594043 37.07370117 35.71240234 37.61474609 C37.92869926 39.99913531 38.00741739 41.13845789 38.1875 44.5 C38 48 38 48 36 50 C35.73622559 49.44965088 35.47245117 48.89930176 35.20068359 48.33227539 C31.91895016 41.92874368 27.81841935 37.36307691 22.625 32.4375 C17.70700247 27.69762783 12.98118557 22.93249088 8.53613281 17.7434082 C6.67591508 15.63218525 4.65211177 13.75687259 2.5625 11.875 C-0.92403846 8.45576923 -0.92403846 8.45576923 -1.5625 4.625 C-1 2 -1 2 0 0 Z " fill="#F8B489" transform="translate(248,315)"/>
<path d="M0 0 C-0.01289063 0.97066406 -0.02578125 1.94132812 -0.0390625 2.94140625 C0.79874235 8.74619697 5.5399907 12.12589683 9.625 15.9375 C11.22372566 17.46496965 12.82010771 18.99489624 14.4140625 20.52734375 C15.19104492 21.27105225 15.96802734 22.01476074 16.76855469 22.78100586 C19.49558412 25.49281882 21.99107443 28.35887364 24.48583984 31.28295898 C26.34308714 33.38905705 28.3885504 35.2149816 30.5 37.0625 C32.53125 39.03515625 32.53125 39.03515625 34 41 C34 45 34 45 33 48 C32.34 48 31.68 48 31 48 C30.10082938 46.61666058 29.20512503 45.23097867 28.32421875 43.8359375 C26.2902361 41.01596156 23.80462516 38.71285943 21.29296875 36.3203125 C19.34822132 34.35237387 17.56265417 32.34600742 15.765625 30.24609375 C13.24004246 27.32995721 10.62130832 24.61325468 7.81640625 21.96484375 C7.11708984 21.30033203 6.41777344 20.63582031 5.69726562 19.95117188 C4.25762279 18.59319222 2.80676457 17.2470175 1.34570312 15.91210938 C-3.8690911 10.90181689 -3.8690911 10.90181689 -4.5625 6.125 C-4 3 -4 3 -2.5625 1.0625 C-1 0 -1 0 0 0 Z " fill="#F5B288" transform="translate(221,329)"/>
<path d="M0 0 C6.73311354 5.55978276 12.74057873 11.73075343 18.796875 18.01171875 C23.27368508 22.56821315 27.66948417 26.32176871 33.07617188 29.72167969 C35.47582254 31.31616838 37.25286602 33.14183466 39.0625 35.375 C39.63097656 36.06335938 40.19945312 36.75171875 40.78515625 37.4609375 C41.18605469 37.96882813 41.58695312 38.47671875 42 39 C38.50827058 39 37.99195701 38.48044067 35.3828125 36.33203125 C34.69316406 35.76806641 34.00351562 35.20410156 33.29296875 34.62304688 C32.57753906 34.02556641 31.86210937 33.42808594 31.125 32.8125 C30.41730469 32.23435547 29.70960938 31.65621094 28.98046875 31.06054688 C25.11522963 27.87550347 21.49647249 24.59197553 18 21 C16.52690473 19.55768116 15.05138132 18.1178405 13.57421875 16.6796875 C11.94513539 15.07830515 10.31623363 13.47673805 8.6875 11.875 C7.85154297 11.06417969 7.01558594 10.25335938 6.15429688 9.41796875 C4.9699707 8.24814453 4.9699707 8.24814453 3.76171875 7.0546875 C3.03944092 6.34812012 2.31716309 5.64155273 1.57299805 4.91357422 C0 3 0 3 0 0 Z " fill="#EDA27C" transform="translate(297,278)"/>
<path d="M0 0 C3.90669155 1.75027517 7.30889987 4.17284991 10.75 6.6875 C11.65298828 7.30141602 11.65298828 7.30141602 12.57421875 7.92773438 C14.296875 9.19921875 14.296875 9.19921875 17 12 C17.515625 15.70703125 17.515625 15.70703125 17 19 C16.34 19.66 15.68 20.32 15 21 C14.75507813 20.39414062 14.51015625 19.78828125 14.2578125 19.1640625 C11.25899036 12.44256461 7.37070608 7.94835415 2.01171875 2.93359375 C1.34785156 2.29550781 0.68398438 1.65742188 0 1 C0 0.67 0 0.34 0 0 Z " fill="#FDB78B" transform="translate(322,306)"/>
</svg>
